# xmcd CD database file
#
# Track frame offsets:
#	150
#	19150
#	47440
#	66615
#	90971
#	110042
#	127844
#	143703
#	169015
#	198745
#	217160
#	234037
#	250636
#	267658
#	287080
#	308764
#	328166
#
# Disc length: 4646 seconds
#
# Revision: 2
# Processed by: cddbd v1.5.2PL0 Copyright (c) Steve Scherf et al.
# Submitted via: CDex 1.70beta2
#
DISCID=f9122411
DTITLE=Al Jarreau - Best Of
DYEAR=2008
DGENRE=Soul
TTITLE0=Boogie down
TTITLE1=Roof garden
TTITLE2=Mornin'
TTITLE3=L is for Lover
TTITLE4=Breaking away
TTITLE5=Agua de Beber
TTITLE6=Take five
TTITLE7=Your song
TTITLE8=Spain
TTITLE9=Teach me tonight
TTITLE10=Cold duck
TTITLE11=Day by day (Shakatak feat. Al Jarreau)
TTITLE12=We're in this love together
TTITLE13=Just to be loved
TTITLE14=Lost and found (feat. Joe Cocker)
TTITLE15=After all
TTITLE16=High crime
EXTD=YEAR: 2008
EXTT0=
EXTT1=
EXTT2=
EXTT3=
EXTT4=
EXTT5=
EXTT6=
EXTT7=
EXTT8=
EXTT9=
EXTT10=
EXTT11=
EXTT12=
EXTT13=
EXTT14=
EXTT15=
EXTT16=
PLAYORDER=
